<svg xmlns="http://www.w3.org/2000/svg" viewBox="0 0 55 55"><defs><style>.cls-1{fill:#fff;}</style></defs><g id="Layer_2" data-name="Layer 2"><g id="Layer_1-2" data-name="Layer 1"><g id="cpp-logo"><path id="icon" class="cls-1" d="M16.8,52.84A27.53,27.53,0,0,1,0,27.5,27.53,27.53,0,0,1,16.8,2.17,27.43,27.43,0,0,1,46.94,8.06a27.47,27.47,0,0,1,0,38.88,27.68,27.68,0,0,1-8.75,5.9,27.58,27.58,0,0,1-21.4,0ZM5,27.5A22.5,22.5,0,1,0,27.5,5,22.52,22.52,0,0,0,5,27.5Zm2.68,0A19.82,19.82,0,1,1,27.5,47.32,19.84,19.84,0,0,1,7.68,27.5Zm10.11-7.88V35.38a1.84,1.84,0,0,0,1.83,1.84H35.38a1.85,1.85,0,0,0,1.84-1.84V19.62a1.85,1.85,0,0,0-1.84-1.84H19.62a1.85,1.85,0,0,0-1.84,1.84h0Zm3.08,14.51V20.87H34.13V34.13Z"/></g></g></g></svg>